<svg width="32" height="32" viewBox="0 0 24 24" fill="none" xmlns="http://www.w3.org/2000/svg">
  <path d="M13 3L16.293 6.293C16.923 6.923 17.238 7.238 17.47 7.597C17.6728 7.91311 17.8123 8.25909 17.883 8.618C17.964 9.018 17.964 9.437 17.964 10.274V16.2C17.964 17.8802 17.964 18.7202 17.519 19.362C17.1229 19.9265 16.5265 20.3302 15.846 20.476C15.0663 20.65 14.1905 20.234 12.439 19.402L11.561 18.964C9.80949 18.132 8.93373 17.716 8.154 17.89C7.47348 18.0358 6.87707 18.4395 6.481 19.004C6.036 19.646 6.036 20.486 6.036 22.166V3C6.036 2.602 6.036 2.403 6.127 2.253C6.207 2.12 6.332 2.018 6.479 1.968C6.647 1.91 6.85 1.941 7.256 2.003C8.665 2.223 10.136 2.223 11.78 2.003C12.186 1.941 12.389 1.91 12.557 1.968C12.7041 2.01816 12.8292 2.12016 12.909 2.253C13 2.403 13 2.602 13 3Z" stroke="#39FF14" stroke-width="2" stroke-linecap="round" stroke-linejoin="round"/>
  <path d="M9 6.5H15" stroke="#39FF14" stroke-width="2" stroke-linecap="round" stroke-linejoin="round"/>
  <path d="M9 10H15" stroke="#39FF14" stroke-width="2" stroke-linecap="round" stroke-linejoin="round"/>
  <path d="M13 13.5H15" stroke="#39FF14" stroke-width="2" stroke-linecap="round" stroke-linejoin="round"/>
</svg>